<svg width="150" height="123" viewBox="0 0 150 123" fill="none" xmlns="http://www.w3.org/2000/svg">
<line x1="119.5" y1="1" x2="119.5" y2="123" stroke="white"/>
<line x1="148.944" y1="1" x2="148.944" y2="123" stroke="white"/>
<line x1="119" y1="0.5" x2="149.286" y2="0.5" stroke="white"/>
<line x1="119.841" y1="122.5" x2="149.286" y2="122.5" stroke="white"/>
<line y1="-0.5" x2="127.492" y2="-0.5" transform="matrix(0.290339 0.956924 -0.919101 0.394022 0 1)" stroke="white"/>
<line y1="-0.5" x2="127.56" y2="-0.5" transform="matrix(-0.316564 0.948571 -0.904486 -0.426503 111.048 1)" stroke="white"/>
<line y1="-0.5" x2="91.6403" y2="-0.5" transform="matrix(0.275404 0.961329 -0.909859 0.414918 28.6032 1)" stroke="white"/>
<line y1="-0.5" x2="92.6236" y2="-0.5" transform="matrix(-0.308811 0.951123 -0.888368 -0.459133 82.4445 1)" stroke="white"/>
<line x1="29.4445" y1="0.5" x2="1.33514e-05" y2="0.5" stroke="white"/>
<line x1="111.048" y1="1.5" x2="82.4444" y2="1.5" stroke="white"/>
<line x1="71.5079" y1="122.5" x2="37.0159" y2="122.5" stroke="white"/>
</svg>
